<svg width="60" height="60" viewBox="0 0 60 60" xmlns="http://www.w3.org/2000/svg">
  <defs>
    <pattern id="thai-motif" x="0" y="0" width="60" height="60" patternUnits="userSpaceOnUse">
      <path d="M30 10C25.5817 10 22 13.5817 22 18C22 22.4183 25.5817 26 30 26C34.4183 26 38 22.4183 38 18C38 13.5817 34.4183 10 30 10ZM30 24C26.6863 24 24 21.3137 24 18C24 14.6863 26.6863 12 30 12C33.3137 12 36 14.6863 36 18C36 21.3137 33.3137 24 30 24Z" fill="#D4AF37" fill-opacity="0.1"/>
      <path d="M30 34C25.5817 34 22 37.5817 22 42C22 46.4183 25.5817 50 30 50C34.4183 50 38 46.4183 38 42C38 37.5817 34.4183 34 30 34ZM30 48C26.6863 48 24 45.3137 24 42C24 38.6863 26.6863 36 30 36C33.3137 36 36 38.6863 36 42C36 45.3137 33.3137 48 30 48Z" fill="#D4AF37" fill-opacity="0.1"/>
      <path d="M6 22C1.58172 22 -2 25.5817 -2 30C-2 34.4183 1.58172 38 6 38C10.4183 38 14 34.4183 14 30C14 25.5817 10.4183 22 6 22ZM6 36C2.68629 36 0 33.3137 0 30C0 26.6863 2.68629 24 6 24C9.31371 24 12 26.6863 12 30C12 33.3137 9.31371 36 6 36Z" fill="#D4AF37" fill-opacity="0.1"/>
      <path d="M54 22C49.5817 22 46 25.5817 46 30C46 34.4183 49.5817 38 54 38C58.4183 38 62 34.4183 62 30C62 25.5817 58.4183 22 54 22ZM54 36C50.6863 36 48 33.3137 48 30C48 26.6863 50.6863 24 54 24C57.3137 24 60 26.6863 60 30C60 33.3137 57.3137 36 54 36Z" fill="#D4AF37" fill-opacity="0.1"/>
    </pattern>
  </defs>
  <rect width="60" height="60" fill="url(#thai-motif)"/>
</svg> 